<svg version="1.1" id="Layer_1" xmlns="http://www.w3.org/2000/svg" xmlns:xlink="http://www.w3.org/1999/xlink" x="0px" y="0px"
	 width="100%" viewBox="0 0 192 192" enable-background="new 0 0 192 192" xml:space="preserve">
<path fill="#000000" opacity="1.000000" stroke="none" 
	d="
M1.000000,65.000000 
	C1.000000,43.333340 1.000000,22.166677 1.000000,1.000011 
	C64.999977,1.000008 128.999954,1.000008 192.999954,1.000004 
	C192.999969,64.999962 192.999969,128.999924 192.999985,192.999908 
	C129.000046,192.999939 65.000099,192.999939 1.000076,192.999969 
	C1.000000,150.500000 1.000000,108.000000 1.000000,65.000000 
M49.457642,31.145113 
	C49.368145,31.478992 49.278645,31.812872 49.035431,32.471119 
	C49.035431,32.471119 48.983059,32.826225 48.459709,33.048481 
	C48.276489,33.366756 48.093266,33.685028 48.002388,33.996098 
	C48.002388,33.996098 47.995159,33.903751 47.457771,34.057999 
	C47.275967,34.369068 47.094162,34.680134 46.970726,34.959034 
	C46.970726,34.959034 46.928345,34.907597 46.284317,35.189713 
	C45.677334,36.126350 45.025955,37.037476 44.470619,38.003792 
	C41.046150,43.962521 36.899445,49.648548 37.034439,57.425545 
	C37.034439,57.425545 37.003830,57.845943 36.328999,58.266098 
	C35.958900,60.897751 35.588802,63.529404 35.084957,66.859505 
	C35.144852,67.565308 35.204742,68.271103 35.110619,69.892220 
	C35.750984,74.633339 36.391354,79.374451 37.053261,84.550537 
	C37.053261,84.550537 37.182354,84.966454 37.030018,85.771164 
	C39.046482,90.793327 41.062943,95.815491 43.668949,101.214355 
	C44.597195,104.128174 46.324760,104.750473 48.970592,103.862717 
	C48.273640,108.232681 47.576691,112.602638 46.211018,117.465607 
	C46.194160,120.306458 46.177307,123.147316 46.116295,126.516701 
	C46.399002,126.709106 46.681713,126.901505 46.967392,127.013596 
	C46.967392,127.013596 46.887066,127.011047 46.946373,127.885498 
	C47.598183,131.614609 48.249992,135.343704 48.962124,139.914307 
	C51.339928,148.650253 53.344276,157.514587 56.281269,166.058304 
	C57.438915,169.425903 60.677197,172.078262 63.000446,175.004425 
	C63.000446,175.004425 62.946472,175.032852 63.280605,175.708755 
	C66.992516,178.805634 73.460854,178.955383 76.998619,176.004074 
	C76.998619,176.004074 77.000229,176.065033 77.504021,175.881439 
	C77.691780,175.587067 77.879539,175.292694 77.998711,174.996414 
	C77.998711,174.996414 78.000000,175.065048 78.504883,174.887665 
	C78.683990,174.590897 78.863098,174.294113 78.994255,173.994797 
	C78.994255,173.994797 79.014854,174.038177 79.637024,173.742905 
	C82.118027,168.835709 84.599037,163.928513 87.014877,159.008072 
	C87.014877,159.008072 87.036606,159.070892 87.639534,158.731110 
	C88.799919,156.490952 89.960304,154.250809 91.545441,151.860352 
	C91.814194,151.682800 91.968895,151.434265 92.814125,151.013702 
	C95.866188,151.040024 98.918243,151.066345 101.987602,151.018646 
	C101.987602,151.018646 101.913147,151.003357 102.089043,151.523651 
	C102.391853,151.712173 102.694672,151.900696 102.980164,152.016678 
	C102.980164,152.016678 102.908226,152.036362 102.996078,152.767136 
	C105.999741,158.219940 109.003403,163.672729 112.057533,169.499481 
	C112.057533,169.499481 112.186394,169.854156 112.080818,170.538986 
	C113.046272,171.708038 114.011726,172.877106 115.002647,173.997833 
	C115.002647,173.997833 114.948036,173.999405 115.121742,174.507843 
	C115.414459,174.701157 115.707176,174.894470 115.992905,175.018509 
	C115.992905,175.018509 115.924995,175.033859 116.247032,175.720657 
	C120.949554,179.616058 127.921829,178.872772 132.008499,174.007141 
	C132.008499,174.007141 132.033493,174.069000 132.663849,173.784073 
	C134.715073,169.189011 136.766296,164.593948 138.961731,159.307236 
	C139.328476,158.237747 139.695206,157.168243 140.824783,155.933365 
	C141.092957,155.769638 141.557510,155.646622 141.601120,155.436310 
	C143.749252,145.078049 146.580399,134.790771 147.723145,124.319641 
	C148.478790,117.395416 147.751282,109.978767 143.039368,103.965935 
	C143.039368,103.965935 143.112778,103.948868 143.014542,103.248848 
	C141.336868,101.179771 139.659210,99.110695 137.996597,96.995575 
	C137.996597,96.995575 137.955231,97.021294 137.585571,96.422546 
	C132.389008,94.948135 127.192429,93.473724 121.991943,91.170006 
	C122.600555,87.069717 123.209167,82.969429 123.940941,78.272011 
	C123.911911,77.868149 123.882889,77.464279 124.007286,76.215714 
	C124.488434,72.541374 124.969582,68.867035 125.419823,65.428703 
	C133.107407,66.254822 140.542984,67.053871 148.788696,67.984627 
	C151.937225,67.945625 152.220703,70.078148 151.975830,72.397308 
	C151.129349,80.414429 149.998795,88.337387 145.456619,95.342590 
	C142.192764,100.376312 142.606949,101.779198 147.892242,105.584244 
	C155.384201,96.020073 158.210007,84.871239 159.615250,72.792046 
	C159.438293,72.179741 159.261337,71.567436 159.001297,70.215378 
	C158.937912,69.475288 158.874527,68.735207 158.907028,67.499611 
	C158.865356,67.336624 158.823669,67.173630 158.878357,66.361778 
	C158.830292,65.928436 158.782227,65.495087 158.902695,64.300163 
	C158.290451,62.181217 157.678207,60.062271 157.015244,57.295410 
	C156.961899,56.866497 156.908554,56.437580 156.989029,55.298050 
	C156.670181,54.475708 156.351349,53.653366 155.965607,52.440407 
	C155.965607,52.440407 155.823639,52.070412 155.947098,51.376648 
	C155.310516,50.204853 154.673935,49.033054 153.982590,47.437046 
	C153.982590,47.437046 153.846985,47.031384 153.925369,46.301105 
	C150.982315,41.836521 148.039261,37.371937 144.987091,32.263988 
	C144.009262,31.169115 143.031448,30.074240 141.858261,28.511003 
	C141.581223,28.330511 141.304169,28.150019 140.770477,27.356279 
	C138.872574,25.874842 136.974670,24.393406 134.786942,22.300102 
	C132.883926,21.173874 130.980927,20.047646 128.886734,18.459831 
	C128.686508,18.168486 128.412308,17.992052 127.712105,17.319349 
	C126.171173,16.845621 124.630249,16.371891 122.775566,15.280005 
	C120.518242,14.308938 118.260918,13.337872 115.236862,12.087205 
	C108.318275,11.052451 101.411804,9.919649 94.471367,9.061653 
	C92.997292,8.879424 91.399361,9.699200 89.273170,10.022841 
	C88.886444,10.067932 88.499710,10.113024 87.246185,10.014960 
	C81.436783,12.016023 75.627388,14.017085 69.496964,16.046339 
	C69.496964,16.046339 69.202065,16.176266 68.527290,16.061314 
	C67.663849,16.695061 66.800407,17.328808 65.988052,17.994678 
	C65.988052,17.994678 65.988205,17.934334 65.289886,18.040186 
	C63.478256,19.360161 61.666630,20.680136 59.434937,22.043764 
	C59.434937,22.043764 59.049000,22.215267 58.531422,22.173290 
	C58.338234,22.447046 58.145042,22.720800 58.006744,23.010992 
	C58.006744,23.010992 58.000973,22.953987 57.475563,23.090626 
	C57.295151,23.391428 57.114742,23.692230 56.999187,23.999552 
	C56.999187,23.999552 56.994030,23.934574 56.469265,24.091316 
	C56.283352,24.394140 56.097439,24.696964 55.999840,25.005306 
	C55.999840,25.005306 56.005402,24.916996 55.464603,25.075111 
	C55.260578,25.380934 55.056553,25.686756 54.425117,26.110867 
	C54.151741,26.281860 54.006374,26.528347 53.470005,27.068214 
	C53.281906,27.381294 53.093803,27.694374 53.004196,28.003950 
	C53.004196,28.003950 53.000767,27.905449 52.471710,28.075714 
	C52.287998,28.384436 52.104286,28.693157 52.001026,28.999298 
	C52.001026,28.999298 51.998463,28.918844 51.477230,29.085264 
	C51.296959,29.389267 51.116688,29.693270 51.001984,30.000441 
	C51.001984,30.000441 50.994797,29.935188 50.480659,30.090149 
	C50.307793,30.389450 50.134926,30.688749 50.004272,31.001797 
	C50.004272,31.001797 49.981220,30.963840 49.457642,31.145113 
z"/>
<path fill="#0577BB" opacity="1.000000" stroke="none" 
	d="
M92.009544,151.114731 
	C91.968895,151.434265 91.814194,151.682800 90.976471,152.022949 
	C89.283875,154.480682 88.160248,156.775787 87.036606,159.070892 
	C87.036606,159.070892 87.014877,159.008072 86.732361,159.145035 
	C83.971519,164.200729 81.493187,169.119446 79.014854,174.038177 
	C79.014854,174.038177 78.994255,173.994797 78.818542,174.147461 
	C78.428558,174.555099 78.214279,174.810074 78.000000,175.065048 
	C78.000000,175.065048 77.998711,174.996414 77.827621,175.146423 
	C77.437767,175.552643 77.219002,175.808838 77.000229,176.065033 
	C77.000229,176.065033 76.998619,176.004074 76.565941,176.002411 
	C71.737663,175.678101 67.342072,175.355484 62.946472,175.032852 
	C62.946472,175.032852 63.000446,175.004425 62.961887,174.665863 
	C62.185112,172.893646 61.324871,171.508575 60.730968,170.017426 
	C58.748993,165.041107 56.862450,160.026794 55.263817,154.955170 
	C56.416004,154.585159 57.243710,154.287003 58.270695,154.282120 
	C59.013382,156.133881 59.284130,157.868332 60.153980,159.216156 
	C62.314777,162.564301 64.748863,165.736053 67.041435,168.982941 
	C67.009666,168.987213 67.018372,168.923691 67.140167,169.251892 
	C71.307266,172.955978 72.403526,172.688171 73.984688,167.968536 
	C73.992630,167.997330 73.934845,167.982193 74.276817,167.897293 
	C76.077171,164.823349 77.535553,161.834305 79.013443,158.648193 
	C79.032944,158.451126 79.155098,158.074402 79.471886,157.951324 
	C82.516289,153.530334 85.243896,149.232407 87.985382,144.961288 
	C87.999260,144.988098 87.942711,144.966949 88.340919,144.946228 
	C94.564423,142.647064 100.370476,142.741959 106.361893,145.118134 
	C106.820007,145.333374 106.960144,145.566132 107.098785,146.160522 
	C107.837151,146.957443 108.462479,147.461700 109.056969,147.974625 
	C109.026131,147.983276 109.042191,147.921265 109.060059,148.284012 
	C110.082970,150.085373 111.088020,151.524002 112.057480,152.967041 
	C112.021904,152.971466 112.013512,152.900253 112.158409,153.104523 
	C112.548233,153.533966 112.793167,153.759125 113.017349,153.991165 
	C112.996613,153.998032 113.026421,153.965698 113.020073,154.338608 
	C113.625351,156.146927 114.236984,157.582352 114.913895,159.229492 
	C114.979187,159.441208 115.045891,159.879288 115.066589,160.243439 
	C116.075676,162.066284 117.064049,163.524994 118.025848,164.990662 
	C117.999275,164.997604 118.026451,164.949860 118.049973,165.282654 
	C118.732719,166.405502 119.391937,167.195557 120.023392,167.995117 
	C119.995628,168.004608 119.999802,167.946060 120.145744,168.145493 
	C120.505852,168.598434 120.751152,168.817017 121.007111,169.005188 
	C120.986641,169.009735 120.999336,168.969772 121.147736,169.169159 
	C121.517036,169.619827 121.770836,169.831711 122.027603,170.009003 
	C121.997665,170.013855 122.006104,169.953796 122.135956,170.242813 
	C127.038475,172.663116 128.266678,169.678436 128.952148,165.936172 
	C128.957291,165.969391 128.890091,165.967346 129.210770,165.838135 
	C132.005295,159.461151 134.479141,153.213394 137.039001,146.582916 
	C139.678741,135.172531 142.749069,124.163139 139.922165,112.726967 
	C139.498672,111.013741 137.941040,109.580872 136.946411,108.014709 
	C136.984787,108.011101 136.991760,108.087860 136.883209,107.871201 
	C136.602417,107.378227 136.401672,107.124481 136.115234,106.711174 
	C136.058029,106.529045 136.021622,106.149002 135.894913,105.914581 
	C135.500015,105.452225 135.231842,105.224289 134.987793,104.989609 
	C135.011948,104.982864 135.003586,105.032310 134.855896,104.829781 
	C134.449005,104.418221 134.189819,104.209198 133.962097,104.004517 
	C133.993591,104.008865 133.968079,104.067101 133.954163,103.717087 
	C132.959335,102.259056 131.978439,101.151031 130.956329,99.698044 
	C130.284119,97.880836 129.653122,96.408592 129.405304,94.960052 
	C132.510727,95.662926 135.232971,96.342110 137.955231,97.021294 
	C137.955231,97.021294 137.996597,96.995575 138.020538,97.372742 
	C139.733917,99.816231 141.423340,101.882545 143.112778,103.948868 
	C143.112778,103.948868 143.039368,103.965935 143.077393,104.335281 
	C145.100082,113.288124 146.924698,121.833290 144.962738,130.752960 
	C143.114746,139.154388 141.679031,147.646530 140.061951,156.098755 
	C139.695206,157.168243 139.328476,158.237747 138.632141,159.870209 
	C136.212860,164.978470 134.123184,169.523743 132.033508,174.069000 
	C132.033493,174.069000 132.008499,174.007141 131.665344,174.044342 
	C126.350342,176.994888 121.165291,176.460953 115.924995,175.033859 
	C115.924995,175.033859 115.992905,175.018509 115.846649,174.847733 
	C115.449600,174.451111 115.198822,174.225250 114.948036,173.999405 
	C114.948036,173.999405 115.002647,173.997833 114.977959,173.676880 
	C114.030975,172.188660 113.108681,171.021408 112.186394,169.854156 
	C112.186394,169.854156 112.057533,169.499481 112.007370,168.920715 
	C110.084587,162.272049 108.269188,156.170380 102.908226,152.036362 
	C102.908226,152.036362 102.980164,152.016678 102.836670,151.844604 
	C102.433167,151.449478 102.173157,151.226425 101.913147,151.003357 
	C101.913147,151.003357 101.987602,151.018646 101.847382,150.715256 
	C97.630653,146.878647 94.647217,147.094879 92.009544,151.114731 
z"/>
<path fill="#098AC2" opacity="1.000000" stroke="none" 
	d="
M46.160450,125.988167 
	C46.177307,123.147316 46.194160,120.306458 46.783806,116.945015 
	C49.955486,110.342834 52.554375,104.261253 55.482964,98.107742 
	C56.919273,97.065834 58.025887,96.095848 59.518066,95.106781 
	C61.641655,94.432365 63.379681,93.777039 65.333954,93.080116 
	C65.550201,93.038521 65.986572,92.966751 66.364380,92.985657 
	C67.498390,93.012703 68.254601,93.020836 69.256012,93.030609 
	C69.501221,93.032249 69.991615,93.026947 70.345802,93.028214 
	C71.486069,91.800102 72.936783,90.567795 72.931404,89.341881 
	C72.916336,85.907677 72.299942,82.476097 72.246727,78.904312 
	C73.718918,78.512512 74.865166,78.259880 76.048431,78.391388 
	C77.403954,83.214912 78.722458,87.654297 80.106750,92.368500 
	C80.762146,93.065964 81.351761,93.488625 82.235657,94.113205 
	C83.690079,94.553406 84.850227,94.791679 85.873779,95.327042 
	C83.519623,97.346176 81.302078,99.068214 78.716049,100.766632 
	C76.359428,100.558739 74.348625,100.084969 72.386932,100.238541 
	C61.898479,101.059593 58.327320,103.461830 56.096497,111.796638 
	C54.972477,115.996208 55.229259,120.565353 54.691650,125.317505 
	C54.336662,127.773323 54.151691,129.878998 53.553131,131.986542 
	C51.761375,132.007141 50.383205,132.025879 48.971008,131.691040 
	C48.253677,129.895340 47.570374,128.453201 46.887066,127.011047 
	C46.887066,127.011047 46.967392,127.013596 46.861603,126.849121 
	C46.579758,126.433350 46.381302,126.201187 46.160450,125.988167 
z"/>
<path fill="#0D78B6" opacity="1.000000" stroke="none" 
	d="
M158.734161,65.061745 
	C158.782227,65.495087 158.830292,65.928436 158.771454,66.805153 
	C158.596924,67.517891 158.645798,67.766754 158.811157,67.995117 
	C158.874527,68.735207 158.937912,69.475288 158.907135,70.776840 
	C158.907303,71.907509 159.001633,72.476707 159.095978,73.045906 
	C158.210007,84.871239 155.384201,96.020073 147.892242,105.584244 
	C142.606949,101.779198 142.192764,100.376312 145.456619,95.342590 
	C149.998795,88.337387 151.129349,80.414429 151.975830,72.397308 
	C152.220703,70.078148 151.937225,67.945625 148.382080,67.618607 
	C147.965378,66.853195 147.955276,66.453812 148.093796,65.796532 
	C148.170319,64.342270 148.098221,63.145905 148.256653,61.812683 
	C149.011047,61.184963 149.534912,60.694092 150.285339,60.074341 
	C150.697067,59.661396 150.882263,59.377331 151.231476,58.774101 
	C150.254150,54.325897 149.112808,50.196846 148.292206,45.991875 
	C149.439056,45.604095 150.265167,45.292236 151.301544,45.181267 
	C152.290192,45.931896 153.068588,46.481640 153.846985,47.031384 
	C153.846985,47.031384 153.982590,47.437046 154.013641,48.006039 
	C154.637665,49.740158 155.230652,50.905289 155.823639,52.070412 
	C155.823639,52.070412 155.965607,52.440407 156.009155,52.970284 
	C156.320206,54.336327 156.587692,55.172497 156.855194,56.008667 
	C156.908554,56.437580 156.961899,56.866497 156.896667,57.906670 
	C157.430115,60.699200 158.082138,62.880474 158.734161,65.061745 
z"/>
<path fill="#1DA7D1" opacity="1.000000" stroke="none" 
	d="
M37.182354,84.966454 
	C37.182354,84.966454 37.053261,84.550537 37.040718,83.893684 
	C36.440327,78.483521 35.852482,73.730217 35.264633,68.976906 
	C35.204742,68.271103 35.144852,67.565308 35.437649,66.302795 
	C36.206764,64.182037 36.623188,62.617985 37.380684,61.077774 
	C39.809498,61.089294 41.897243,61.076973 44.417915,61.056007 
	C49.247883,60.379837 53.644924,59.712315 58.042683,59.449409 
	C57.822086,63.104855 59.621975,64.022614 62.539669,64.011963 
	C64.672012,64.004173 66.805763,64.379715 68.908310,64.707077 
	C68.877731,64.829765 68.922050,65.078728 68.517700,65.030052 
	C59.511082,66.388199 50.908813,67.795021 42.154747,69.226662 
	C41.648087,78.131454 44.041714,86.134277 46.744900,93.886620 
	C44.241020,91.839630 42.049877,89.923737 39.633568,87.830383 
	C38.666382,86.757423 37.924370,85.861938 37.182354,84.966454 
z"/>
<path fill="#26B4DA" opacity="1.000000" stroke="none" 
	d="
M43.984989,61.064655 
	C41.897243,61.076973 39.809498,61.089294 37.373699,60.676319 
	C37.018375,59.449329 37.011105,58.647636 37.003830,57.845943 
	C37.003830,57.845943 37.034439,57.425545 37.282158,56.926968 
	C40.167221,50.949200 42.861774,45.496361 45.405861,39.974205 
	C46.136559,38.388165 46.432865,36.602001 46.928345,34.907597 
	C46.928345,34.907597 46.970726,34.959034 47.153896,34.827667 
	C47.556431,34.432117 47.775795,34.167934 47.995155,33.903751 
	C47.995159,33.903751 48.002388,33.996098 48.165741,33.833054 
	C48.547081,33.388748 48.765068,33.107487 48.983055,32.826225 
	C48.983059,32.826225 49.035431,32.471119 49.277496,32.133404 
	C49.726948,31.548086 49.880836,31.270805 49.981220,30.963840 
	C49.981220,30.963840 50.004272,31.001797 50.190365,30.856270 
	C50.635563,30.494476 50.841679,30.235958 50.994797,29.935188 
	C50.994797,29.935188 51.001984,30.000441 51.178596,29.852905 
	C51.569626,29.443193 51.784042,29.181019 51.998463,28.918842 
	C51.998463,28.918844 52.001026,28.999298 52.169991,28.847980 
	C52.559563,28.432926 52.780167,28.169188 53.000767,27.905449 
	C53.000767,27.905449 53.004196,28.003950 53.165569,27.842224 
	C53.547634,27.403776 53.768330,27.127052 53.989021,26.850328 
	C54.006374,26.528347 54.151741,26.281860 54.858284,25.902988 
	C55.529434,25.435740 55.767418,25.176367 56.005402,24.916996 
	C56.005402,24.916996 55.999840,25.005306 56.168591,24.859734 
	C56.556236,24.454298 56.775135,24.194435 56.994030,23.934574 
	C56.994030,23.934574 56.999187,23.999552 57.176559,23.857857 
	C57.569607,23.462105 57.785290,23.208046 58.000973,22.953987 
	C58.000973,22.953987 58.006744,23.010992 58.184589,22.907032 
	C58.622032,22.643047 58.850887,22.447113 59.049000,22.215267 
	C59.049000,22.215267 59.434937,22.043764 60.007839,22.032835 
	C61.063778,22.026564 61.546818,22.031219 62.061447,22.371891 
	C62.450806,23.513636 62.808567,24.319366 63.126846,25.483170 
	C63.068741,26.566353 63.050114,27.291462 63.021309,28.012909 
	C63.011131,28.009243 63.015820,28.029818 62.724480,28.117603 
	C61.973362,28.833113 61.513580,29.460836 61.036804,30.055464 
	C61.019806,30.022367 61.085365,30.057573 60.797318,30.123062 
	C60.014923,30.493456 59.520573,30.798359 58.945793,31.320446 
	C58.682743,31.813158 58.427692,31.973391 57.810623,32.124542 
	C57.030212,32.851608 56.539394,33.472462 56.039375,34.055458 
	C56.030178,34.017605 56.105980,33.999634 55.898117,34.213257 
	C55.475929,34.976341 55.261608,35.525810 55.036827,36.045097 
	C55.026367,36.014915 55.089840,36.022148 54.877125,36.161949 
	C54.449520,36.562370 54.234627,36.822987 54.018101,37.049980 
	C54.016468,37.016365 54.083553,37.021889 53.870449,37.160694 
	C53.445805,37.562290 53.234261,37.825081 53.022476,38.055656 
	C53.022236,38.023441 53.082859,38.045273 52.767860,38.152245 
	C51.315441,39.890045 50.178020,41.520874 49.017956,43.528809 
	C48.406254,45.368732 47.693687,46.795345 47.252132,48.301407 
	C46.094494,52.249893 45.055069,56.233040 43.968910,60.418015 
	C43.969292,60.633656 43.984989,61.064655 43.984989,61.064655 
z"/>
<path fill="#0381C1" opacity="1.000000" stroke="none" 
	d="
M148.026123,61.949539 
	C148.098221,63.145905 148.170319,64.342270 147.676117,65.771202 
	C142.688477,65.496468 138.238495,65.164246 133.851395,64.447342 
	C122.975716,62.670113 121.521782,64.068306 123.207771,75.196198 
	C123.304642,75.835564 123.633156,76.439819 123.853859,77.060417 
	C123.882889,77.464279 123.911911,77.868149 123.582649,78.600273 
	C122.828407,78.959557 122.432457,78.990585 121.723145,79.182991 
	C119.918373,81.562943 118.426979,83.781509 116.950012,85.569778 
	C117.188622,83.499702 117.557556,81.864609 117.610794,80.219299 
	C117.796036,74.493942 117.871872,68.765060 118.024872,62.684444 
	C119.712936,60.551216 121.365425,58.771053 123.368805,57.007107 
	C124.188835,57.022266 124.657982,57.021214 125.319153,57.033699 
	C125.511177,57.047234 125.878128,57.163769 126.101151,57.463543 
	C127.537933,58.167721 128.723801,58.731487 129.970169,58.949482 
	C135.979874,60.000584 142.005890,60.958538 148.026123,61.949539 
z"/>
<path fill="#14A5D5" opacity="1.000000" stroke="none" 
	d="
M88.112984,10.158114 
	C88.499710,10.113024 88.886444,10.067932 89.939835,10.220445 
	C93.745667,10.638555 96.884819,10.859062 99.932236,11.392206 
	C99.228638,13.105694 98.616776,14.506543 97.614548,15.930149 
	C95.077469,16.889864 92.930748,17.826822 90.504730,18.904764 
	C89.418083,19.963037 88.610733,20.880325 87.546127,21.973007 
	C86.774857,23.027239 86.260849,23.906078 85.460487,24.961922 
	C82.794212,30.097174 80.414276,35.055424 77.687180,40.083366 
	C76.193947,40.433472 75.047874,40.713882 73.952133,40.603127 
	C75.654808,34.445839 77.307167,28.679726 78.973015,22.954655 
	C78.986504,22.995699 78.904366,23.022512 79.108109,22.801937 
	C79.534508,22.030603 79.757172,21.479845 79.987274,20.959446 
	C79.994713,20.989807 79.932518,20.983456 80.246582,20.908306 
	C81.037941,19.554859 81.515236,18.276564 81.993340,16.590641 
	C81.993134,15.095995 81.992111,14.008973 82.294769,12.740654 
	C84.436623,11.758941 86.274803,10.958528 88.112984,10.158114 
z"/>
<path fill="#1877AB" opacity="1.000000" stroke="none" 
	d="
M140.443359,156.016052 
	C141.679031,147.646530 143.114746,139.154388 144.962738,130.752960 
	C146.924698,121.833290 145.100082,113.288124 143.088837,104.299377 
	C147.751282,109.978767 148.478790,117.395416 147.723145,124.319641 
	C146.580399,134.790771 143.749252,145.078049 141.601120,155.436310 
	C141.557510,155.646622 141.092957,155.769638 140.443359,156.016052 
z"/>
<path fill="#1BAFDB" opacity="1.000000" stroke="none" 
	d="
M81.991089,12.921951 
	C81.992111,14.008973 81.993134,15.095995 81.632172,16.679726 
	C76.236992,19.296410 70.129257,19.473766 67.009750,25.032463 
	C67.005119,25.003098 67.060776,25.024008 66.668533,25.006779 
	C65.239632,25.034733 64.202980,25.079914 63.166328,25.125097 
	C62.808567,24.319366 62.450806,23.513636 62.379570,22.265738 
	C63.773468,20.527159 64.880836,19.230747 65.988205,17.934334 
	C65.988205,17.934334 65.988052,17.994678 66.292328,17.967442 
	C67.465096,17.352226 68.333580,16.764244 69.202065,16.176266 
	C69.202065,16.176266 69.496964,16.046339 70.067078,16.025745 
	C74.421822,14.977419 78.206459,13.949685 81.991089,12.921951 
z"/>
<path fill="#0D96C8" opacity="1.000000" stroke="none" 
	d="
M39.858734,88.007851 
	C42.049877,89.923737 44.241020,91.839630 47.049835,94.064049 
	C48.453957,96.872643 49.240406,99.372711 49.847569,102.078613 
	C49.402195,102.532501 49.136108,102.780540 48.870026,103.028580 
	C46.324760,104.750473 44.597195,104.128174 43.350597,100.641190 
	C41.974407,96.047958 40.916569,92.027908 39.858734,88.007851 
z"/>
<path fill="#1B78AB" opacity="1.000000" stroke="none" 
	d="
M54.939339,155.027039 
	C56.862450,160.026794 58.748993,165.041107 60.730968,170.017426 
	C61.324871,171.508575 62.185112,172.893646 62.945679,174.691803 
	C60.677197,172.078262 57.438915,169.425903 56.281269,166.058304 
	C53.344276,157.514587 51.339928,148.650253 49.019051,139.437531 
	C49.075977,138.960770 49.250202,138.848801 49.431572,139.159149 
	C51.388412,144.655334 53.163876,149.841187 54.939339,155.027039 
z"/>
<path fill="#1D7DAD" opacity="1.000000" stroke="none" 
	d="
M123.930573,76.638062 
	C123.633156,76.439819 123.304642,75.835564 123.207771,75.196198 
	C121.521782,64.068306 122.975716,62.670113 133.851395,64.447342 
	C138.238495,65.164246 142.688477,65.496468 147.527496,66.029091 
	C147.955276,66.453812 147.965378,66.853195 147.977020,67.552750 
	C140.542984,67.053871 133.107407,66.254822 125.419823,65.428703 
	C124.969582,68.867035 124.488434,72.541374 123.930573,76.638062 
z"/>
<path fill="#37A6C4" opacity="1.000000" stroke="none" 
	d="
M100.023979,11.079569 
	C96.884819,10.859062 93.745667,10.638555 90.232498,10.237688 
	C91.399361,9.699200 92.997292,8.879424 94.471367,9.061653 
	C101.411804,9.919649 108.318275,11.052451 115.423172,12.343000 
	C115.356171,12.764573 115.099197,12.924461 114.445465,13.040154 
	C109.376251,12.361088 104.700111,11.720328 100.023979,11.079569 
z"/>
<path fill="#3EAECA" opacity="1.000000" stroke="none" 
	d="
M46.606331,35.048653 
	C46.432865,36.602001 46.136559,38.388165 45.405861,39.974205 
	C42.861774,45.496361 40.167221,50.949200 37.349930,56.727409 
	C36.899445,49.648548 41.046150,43.962521 44.470619,38.003792 
	C45.025955,37.037476 45.677334,36.126350 46.606331,35.048653 
z"/>
<path fill="#238BB8" opacity="1.000000" stroke="none" 
	d="
M48.920311,103.445648 
	C49.136108,102.780540 49.402195,102.532501 50.164246,102.026321 
	C52.088280,100.492729 53.516357,99.217278 54.997055,98.000916 
	C55.049675,98.060020 55.153267,98.179665 55.153267,98.179665 
	C52.554375,104.261253 49.955486,110.342834 47.118164,116.698517 
	C47.576691,112.602638 48.273640,108.232681 48.920311,103.445648 
z"/>
<path fill="#1B78AB" opacity="1.000000" stroke="none" 
	d="
M102.952148,152.401749 
	C108.269188,156.170380 110.084587,162.272049 111.982140,168.733734 
	C109.003403,163.672729 105.999741,158.219940 102.952148,152.401749 
z"/>
<path fill="#37A6C4" opacity="1.000000" stroke="none" 
	d="
M82.294769,12.740653 
	C78.206459,13.949685 74.421822,14.977419 70.227585,16.011650 
	C75.627388,14.017085 81.436783,12.016023 87.679581,10.086536 
	C86.274803,10.958528 84.436623,11.758941 82.294769,12.740653 
z"/>
<path fill="#1877AB" opacity="1.000000" stroke="none" 
	d="
M137.770401,96.721924 
	C135.232971,96.342110 132.510727,95.662926 129.062714,94.773987 
	C125.562820,93.707344 122.788689,92.850464 120.344788,91.994041 
	C121.115288,91.996109 121.555573,91.997719 121.995857,91.999329 
	C127.192429,93.473724 132.389008,94.948135 137.770401,96.721924 
z"/>
<path fill="#1B78AB" opacity="1.000000" stroke="none" 
	d="
M79.325943,173.890533 
	C81.493187,169.119446 83.971519,164.200729 86.764938,159.151657 
	C84.599037,163.928513 82.118027,168.835709 79.325943,173.890533 
z"/>
<path fill="#1D7BAE" opacity="1.000000" stroke="none" 
	d="
M153.886169,46.666245 
	C153.068588,46.481640 152.290192,45.931896 151.132843,44.876118 
	C148.747269,40.662422 146.740616,36.954758 144.824554,33.162174 
	C144.915131,33.077251 145.096207,32.907349 145.096207,32.907349 
	C148.039261,37.371937 150.982315,41.836521 153.886169,46.666245 
z"/>
<path fill="#1B78AB" opacity="1.000000" stroke="none" 
	d="
M116.086014,175.377258 
	C121.165291,176.460953 126.350342,176.994888 131.695892,174.057709 
	C127.921829,178.872772 120.949554,179.616058 116.086014,175.377258 
z"/>
<path fill="#1B78AB" opacity="1.000000" stroke="none" 
	d="
M132.348679,173.926544 
	C134.123184,169.523743 136.212860,164.978470 138.560028,160.216034 
	C136.766296,164.593948 134.715073,169.189011 132.348679,173.926544 
z"/>
<path fill="#2B9EC3" opacity="1.000000" stroke="none" 
	d="
M39.633568,87.830383 
	C40.916569,92.027908 41.974407,96.047958 43.055824,100.452835 
	C41.062943,95.815491 39.046482,90.793327 37.106186,85.368805 
	C37.924370,85.861938 38.666382,86.757423 39.633568,87.830383 
z"/>
<path fill="#1B78AB" opacity="1.000000" stroke="none" 
	d="
M63.113541,175.370804 
	C67.342072,175.355484 71.737663,175.678101 76.594055,176.014191 
	C73.460854,178.955383 66.992516,178.805634 63.113541,175.370804 
z"/>
<path fill="#1D7DAD" opacity="1.000000" stroke="none" 
	d="
M121.993896,91.584671 
	C121.555573,91.997719 121.115288,91.996109 120.377586,91.593483 
	C120.732277,87.135513 121.384392,83.078560 122.036499,79.021606 
	C122.432457,78.990585 122.828407,78.959557 123.521065,78.898834 
	C123.209167,82.969429 122.600555,87.069717 121.993896,91.584671 
z"/>
<path fill="#1B78AB" opacity="1.000000" stroke="none" 
	d="
M92.411835,151.064209 
	C94.647217,147.094879 97.630653,146.878647 101.838730,150.752258 
	C98.918243,151.066345 95.866188,151.040024 92.411835,151.064209 
z"/>
<path fill="#3EAECA" opacity="1.000000" stroke="none" 
	d="
M35.187630,69.434563 
	C35.852482,73.730217 36.440327,78.483521 37.029949,83.676201 
	C36.391354,79.374451 35.750984,74.633339 35.187630,69.434563 
z"/>
<path fill="#1B78AB" opacity="1.000000" stroke="none" 
	d="
M46.916718,127.448273 
	C47.570374,128.453201 48.253677,129.895340 48.967808,132.116989 
	C49.082489,134.880585 49.166348,136.864700 49.250202,138.848801 
	C49.250202,138.848801 49.075977,138.960770 48.988892,139.016785 
	C48.249992,135.343704 47.598183,131.614609 46.916718,127.448273 
z"/>
<path fill="#1877AB" opacity="1.000000" stroke="none" 
	d="
M143.063660,103.598862 
	C141.423340,101.882545 139.733917,99.816231 138.013000,97.395767 
	C139.659210,99.110695 141.336868,101.179771 143.063660,103.598862 
z"/>
<path fill="#248DB6" opacity="1.000000" stroke="none" 
	d="
M114.838554,13.078462 
	C115.099197,12.924461 115.356171,12.764573 115.806534,12.482801 
	C118.260918,13.337872 120.518242,14.308938 122.874481,15.668663 
	C122.973389,16.057322 122.857605,16.216589 122.488213,16.152868 
	C119.751015,15.406360 117.383217,14.723572 114.976311,13.799264 
	C114.937210,13.557744 114.838554,13.078462 114.838554,13.078462 
z"/>
<path fill="#248DB6" opacity="1.000000" stroke="none" 
	d="
M135.076767,22.911970 
	C136.974670,24.393406 138.872574,25.874842 140.863831,27.713425 
	C140.957184,28.070568 140.888992,28.172815 140.544647,28.104534 
	C138.417175,26.414209 136.634048,24.792168 134.907410,23.105598 
	C134.963882,23.041073 135.076767,22.911972 135.076767,22.911970 
z"/>
<path fill="#3EAECA" opacity="1.000000" stroke="none" 
	d="
M65.639046,17.987261 
	C64.880836,19.230747 63.773468,20.527159 62.347977,21.929722 
	C61.546818,22.031219 61.063778,22.026564 60.217873,22.011009 
	C61.666630,20.680136 63.478256,19.360161 65.639046,17.987261 
z"/>
<path fill="#1B78AB" opacity="1.000000" stroke="none" 
	d="
M87.338074,158.901001 
	C88.160248,156.775787 89.283875,154.480682 90.764099,152.098114 
	C89.960304,154.250809 88.799919,156.490952 87.338074,158.901001 
z"/>
<path fill="#3EAECA" opacity="1.000000" stroke="none" 
	d="
M36.666412,58.056023 
	C37.011105,58.647636 37.018375,59.449329 37.032631,60.652477 
	C36.623188,62.617985 36.206764,64.182037 35.504524,65.953575 
	C35.588802,63.529404 35.958900,60.897751 36.666412,58.056023 
z"/>
<path fill="#248DB6" opacity="1.000000" stroke="none" 
	d="
M129.077911,18.921417 
	C130.980927,20.047646 132.883926,21.173874 134.931854,22.606037 
	C135.076767,22.911972 134.963882,23.041073 134.559631,23.060535 
	C133.453247,23.024971 132.751129,22.969940 131.857788,22.667225 
	C130.706116,21.335756 129.745667,20.251972 128.859329,19.107628 
	C128.933456,19.047068 129.077911,18.921417 129.077911,18.921417 
z"/>
<path fill="#1D7BAE" opacity="1.000000" stroke="none" 
	d="
M158.818420,64.680954 
	C158.082138,62.880474 157.430115,60.699200 156.922028,58.230629 
	C157.678207,60.062271 158.290451,62.181217 158.818420,64.680954 
z"/>
<path fill="#1D7BAE" opacity="1.000000" stroke="none" 
	d="
M142.053619,28.979366 
	C143.031448,30.074240 144.009262,31.169115 145.041656,32.585670 
	C145.096207,32.907349 144.915131,33.077251 144.537811,32.993561 
	C143.312561,31.614258 142.464615,30.318644 141.725067,29.003599 
	C141.833435,28.984171 142.053619,28.979366 142.053619,28.979366 
z"/>
<path fill="#1B78AB" opacity="1.000000" stroke="none" 
	d="
M112.133606,170.196564 
	C113.108681,171.021408 114.030975,172.188660 114.965225,173.701035 
	C114.011726,172.877106 113.046272,171.708038 112.133606,170.196564 
z"/>
<path fill="#248DB6" opacity="1.000000" stroke="none" 
	d="
M123.031357,15.977741 
	C124.630249,16.371891 126.171173,16.845621 127.820656,17.715508 
	C127.929207,18.111664 127.799599,18.296638 127.463196,18.222353 
	C125.703735,17.504242 124.280670,16.860416 122.857605,16.216591 
	C122.857605,16.216589 122.973389,16.057322 123.031357,15.977741 
z"/>
<path fill="#1D7BAE" opacity="1.000000" stroke="none" 
	d="
M155.885376,51.723534 
	C155.230652,50.905289 154.637665,49.740158 154.041016,48.218147 
	C154.673935,49.033054 155.310516,50.204853 155.885376,51.723534 
z"/>
<path fill="#37A6C4" opacity="1.000000" stroke="none" 
	d="
M68.864677,16.118790 
	C68.333580,16.764244 67.465096,17.352226 66.266785,17.951382 
	C66.800407,17.328808 67.663849,16.695061 68.864677,16.118790 
z"/>
<path fill="#1D7BAE" opacity="1.000000" stroke="none" 
	d="
M159.355606,72.918976 
	C159.001633,72.476707 158.907303,71.907509 158.948669,71.146713 
	C159.261337,71.567436 159.438293,72.179741 159.355606,72.918976 
z"/>
<path fill="#1D7BAE" opacity="1.000000" stroke="none" 
	d="
M156.922119,55.653358 
	C156.587692,55.172497 156.320206,54.336327 156.042603,53.165588 
	C156.351349,53.653366 156.670181,54.475708 156.922119,55.653358 
z"/>
<path fill="#1B78AB" opacity="1.000000" stroke="none" 
	d="
M78.252441,174.976349 
	C78.214279,174.810074 78.428558,174.555099 78.842522,174.148743 
	C78.863098,174.294113 78.683990,174.590897 78.252441,174.976349 
z"/>
<path fill="#1B78AB" opacity="1.000000" stroke="none" 
	d="
M115.034889,174.253632 
	C115.198822,174.225250 115.449600,174.451111 115.850136,174.882370 
	C115.707176,174.894470 115.414459,174.701157 115.034889,174.253632 
z"/>
<path fill="#1B78AB" opacity="1.000000" stroke="none" 
	d="
M102.001099,151.263504 
	C102.173157,151.226425 102.433167,151.449478 102.845329,151.880890 
	C102.694672,151.900696 102.391853,151.712173 102.001099,151.263504 
z"/>
<path fill="#3EAECA" opacity="1.000000" stroke="none" 
	d="
M48.721382,32.937351 
	C48.765068,33.107487 48.547081,33.388748 48.119568,33.836655 
	C48.093266,33.685028 48.276489,33.366756 48.721382,32.937351 
z"/>
<path fill="#1B78AB" opacity="1.000000" stroke="none" 
	d="
M77.252129,175.973236 
	C77.219002,175.808838 77.437767,175.552643 77.861923,175.147385 
	C77.879539,175.292694 77.691780,175.587067 77.252129,175.973236 
z"/>
<path fill="#3EAECA" opacity="1.000000" stroke="none" 
	d="
M47.726463,33.980873 
	C47.775795,34.167934 47.556431,34.432117 47.124710,34.843750 
	C47.094162,34.680134 47.275967,34.369068 47.726463,33.980873 
z"/>
<path fill="#3EAECA" opacity="1.000000" stroke="none" 
	d="
M51.737846,29.002052 
	C51.784042,29.181019 51.569626,29.443193 51.145813,29.851320 
	C51.116688,29.693270 51.296959,29.389267 51.737846,29.002052 
z"/>
<path fill="#248DB6" opacity="1.000000" stroke="none" 
	d="
M140.992157,28.020046 
	C141.304169,28.150019 141.581223,28.330511 141.955933,28.745186 
	C142.053619,28.979366 141.833435,28.984171 141.598022,28.870148 
	C141.191986,28.572044 141.034119,28.377607 140.888992,28.172815 
	C140.888992,28.172815 140.957184,28.070568 140.992157,28.020046 
z"/>
<path fill="#3EAECA" opacity="1.000000" stroke="none" 
	d="
M52.736237,27.990582 
	C52.780167,28.169188 52.559563,28.432926 52.129768,28.849272 
	C52.104286,28.693157 52.287998,28.384436 52.736237,27.990582 
z"/>
<path fill="#3EAECA" opacity="1.000000" stroke="none" 
	d="
M53.729515,26.959270 
	C53.768330,27.127052 53.547634,27.403776 53.116322,27.843979 
	C53.093803,27.694374 53.281906,27.381294 53.729515,26.959270 
z"/>
<path fill="#3EAECA" opacity="1.000000" stroke="none" 
	d="
M55.735001,24.996052 
	C55.767418,25.176367 55.529434,25.435740 55.071991,25.843845 
	C55.056553,25.686756 55.260578,25.380934 55.735001,24.996052 
z"/>
<path fill="#3EAECA" opacity="1.000000" stroke="none" 
	d="
M56.731647,24.012945 
	C56.775135,24.194435 56.556236,24.454298 56.124435,24.856976 
	C56.097439,24.696964 56.283352,24.394140 56.731647,24.012945 
z"/>
<path fill="#1D7BAE" opacity="1.000000" stroke="none" 
	d="
M158.859085,67.747360 
	C158.645798,67.766754 158.596924,67.517891 158.723267,67.129585 
	C158.823669,67.173630 158.865356,67.336624 158.859085,67.747360 
z"/>
<path fill="#3EAECA" opacity="1.000000" stroke="none" 
	d="
M57.738266,23.022306 
	C57.785290,23.208046 57.569607,23.462105 57.144131,23.854599 
	C57.114742,23.692230 57.295151,23.391428 57.738266,23.022306 
z"/>
<path fill="#3EAECA" opacity="1.000000" stroke="none" 
	d="
M50.737728,30.012669 
	C50.841679,30.235958 50.635563,30.494476 50.169258,30.849396 
	C50.134926,30.688749 50.307793,30.389450 50.737728,30.012669 
z"/>
<path fill="#3EAECA" opacity="1.000000" stroke="none" 
	d="
M58.790211,22.194279 
	C58.850887,22.447113 58.622032,22.643047 58.157143,22.898815 
	C58.145042,22.720800 58.338234,22.447046 58.790211,22.194279 
z"/>
<path fill="#248DB6" opacity="1.000000" stroke="none" 
	d="
M127.996674,18.021099 
	C128.412308,17.992052 128.686508,18.168486 128.982330,18.690624 
	C129.077911,18.921417 128.933456,19.047068 128.694519,18.962996 
	C128.238129,18.683487 128.019455,18.489391 127.799599,18.296638 
	C127.799599,18.296638 127.929207,18.111664 127.996674,18.021099 
z"/>
<path fill="#3EAECA" opacity="1.000000" stroke="none" 
	d="
M49.719429,31.054478 
	C49.880836,31.270805 49.726948,31.548086 49.354351,31.971218 
	C49.278645,31.812872 49.368145,31.478992 49.719429,31.054478 
z"/>
<path fill="#1B78AB" opacity="1.000000" stroke="none" 
	d="
M46.138374,126.252434 
	C46.381302,126.201187 46.579758,126.433350 46.860119,126.889282 
	C46.681713,126.901505 46.399002,126.709106 46.138374,126.252434 
z"/>
<path fill="#000000" opacity="1.000000" stroke="none" 
	d="
M54.861668,124.967377 
	C55.229259,120.565353 54.972477,115.996208 56.096497,111.796638 
	C58.327320,103.461830 61.898479,101.059593 72.386932,100.238541 
	C74.348625,100.084969 76.359428,100.558739 79.114655,100.836243 
	C83.383263,101.600777 86.908089,102.934601 90.381676,102.812386 
	C98.933678,102.511452 107.462135,101.541328 116.407341,100.899467 
	C123.012634,99.344933 128.668884,100.720886 133.968079,104.067101 
	C133.968079,104.067101 133.993591,104.008865 134.052948,104.255859 
	C134.409409,104.679337 134.706497,104.855820 135.003586,105.032310 
	C135.003586,105.032310 135.011948,104.982864 135.079956,105.247253 
	C135.439178,105.724106 135.730392,105.936554 136.021622,106.149002 
	C136.021622,106.149002 136.058029,106.529045 136.093719,106.990448 
	C136.416870,107.663849 136.704315,107.875854 136.991760,108.087860 
	C136.991760,108.087860 136.984787,108.011101 136.984329,108.415070 
	C137.643097,110.998528 138.674026,113.140488 138.898560,115.363876 
	C139.989761,126.170288 138.036591,136.656296 135.075577,147.401123 
	C132.976212,153.850479 130.933151,159.908920 128.890091,165.967346 
	C128.890091,165.967346 128.957291,165.969391 128.642914,166.084747 
	C126.221046,167.451340 124.113579,168.702560 122.006104,169.953796 
	C122.006104,169.953796 121.997665,170.013855 121.924484,169.770020 
	C121.567322,169.340714 121.283333,169.155243 120.999336,168.969772 
	C120.999336,168.969772 120.986641,169.009735 120.931580,168.750824 
	C120.584274,168.309967 120.292038,168.128021 119.999802,167.946060 
	C119.999802,167.946060 119.995628,168.004608 119.971298,167.677124 
	C119.306793,166.549728 118.666626,165.749786 118.026451,164.949860 
	C118.026451,164.949860 117.999275,164.997604 118.001038,164.641739 
	C117.017166,162.817017 116.031532,161.348145 115.045898,159.879288 
	C115.045891,159.879288 114.979187,159.441208 114.972115,158.875366 
	C114.318832,156.861588 113.672630,155.413635 113.026421,153.965698 
	C113.026421,153.965698 112.996613,153.998032 112.939758,153.736664 
	C112.593109,153.283630 112.303314,153.091934 112.013512,152.900253 
	C112.013512,152.900253 112.021904,152.971466 112.017982,152.615997 
	C111.023438,150.814102 110.032814,149.367676 109.042191,147.921265 
	C109.042191,147.921265 109.026131,147.983276 108.993385,147.642426 
	C108.302338,146.823685 107.644035,146.345764 106.985741,145.867844 
	C106.960144,145.566132 106.820007,145.333374 106.178101,144.772552 
	C100.522949,140.664276 92.330696,140.935730 87.942711,144.966949 
	C87.942711,144.966949 87.999260,144.988098 87.634354,145.016724 
	C84.564667,149.388351 81.859886,153.731384 79.155098,158.074402 
	C79.155098,158.074402 79.032944,158.451126 78.695770,158.818558 
	C76.884018,162.118057 75.409431,165.050125 73.934845,167.982193 
	C73.934845,167.982193 73.992630,167.997330 73.666260,168.109131 
	C71.232712,168.455185 69.125542,168.689438 67.018372,168.923691 
	C67.018372,168.923691 67.009666,168.987213 66.985092,168.625076 
	C59.524391,154.782104 56.112656,140.176651 54.861668,124.967377 
M106.659164,132.817871 
	C107.432793,132.149734 108.206421,131.481598 109.686714,130.617294 
	C113.166451,125.128456 112.940933,120.820854 109.392632,119.511963 
	C110.149384,118.889267 111.026543,118.167488 111.903694,117.445702 
	C111.185455,116.670494 110.563690,115.762863 109.725548,115.152222 
	C108.570923,114.310997 107.252815,113.694153 105.927246,112.237610 
	C104.355217,107.382149 99.680611,106.178375 95.225746,110.085419 
	C92.473595,112.499146 91.111382,112.780228 90.161873,108.329559 
	C88.870934,110.746422 87.965164,112.442184 86.306656,114.244728 
	C84.958878,114.712822 83.611092,115.180908 81.531853,115.903038 
	C82.328209,118.953804 83.134552,122.042839 84.022400,125.561508 
	C84.022400,125.561508 84.153275,125.978775 84.169434,126.624046 
	C84.261581,127.058853 84.558754,127.786011 84.416107,127.886040 
	C79.952751,131.016403 82.591774,132.034424 85.858147,132.965134 
	C86.603798,133.177597 87.264854,133.686920 88.019463,134.537201 
	C88.019463,134.537201 88.140579,135.002396 88.017975,135.794434 
	C88.490677,136.832703 88.963371,137.870972 89.436073,138.909241 
	C90.222008,138.261124 91.007942,137.613007 91.938232,136.316803 
	C91.974785,135.875839 92.011337,135.434891 92.486122,134.908234 
	C92.486122,134.908234 92.913788,134.779770 93.624718,134.981216 
	C95.753311,135.935822 97.881912,136.890442 100.754013,138.009171 
	C101.921104,138.357697 103.088203,138.706223 104.577538,139.150970 
	C105.123817,136.952347 105.607483,135.005722 106.659164,132.817871 
z"/>
<path fill="#087DBA" opacity="1.000000" stroke="none" 
	d="
M116.000061,100.840302 
	C107.462135,101.541328 98.933678,102.511452 90.381676,102.812386 
	C86.908089,102.934601 83.383263,101.600777 79.483139,100.859863 
	C81.302078,99.068214 83.519623,97.346176 86.265144,95.403343 
	C89.906944,95.130737 93.020782,95.078926 96.432938,95.023346 
	C97.128471,95.001144 97.525681,94.982697 98.272400,95.163513 
	C103.682167,96.090775 108.684685,96.480339 113.041428,92.704811 
	C113.071739,92.502022 113.207100,92.114929 113.487137,91.941147 
	C114.823303,89.844933 115.879440,87.922501 116.935577,86.000076 
	C118.426979,83.781509 119.918373,81.562943 121.723137,79.182991 
	C121.384392,83.078560 120.732277,87.135513 120.047363,91.593025 
	C122.788689,92.850464 125.562820,93.707344 128.679535,94.750290 
	C129.653122,96.408592 130.284119,97.880836 130.539825,99.654785 
	C125.388985,99.384644 120.523888,97.377823 116.000061,100.840302 
z"/>
<path fill="#0580BE" opacity="1.000000" stroke="none" 
	d="
M49.431572,139.159149 
	C49.166348,136.864700 49.082489,134.880585 49.001835,132.470551 
	C50.383205,132.025879 51.761375,132.007141 53.578636,132.402924 
	C55.368954,139.874588 56.720188,146.931717 58.071419,153.988861 
	C57.243710,154.287003 56.416004,154.585159 55.263817,154.955170 
	C53.163876,149.841187 51.388412,144.655334 49.431572,139.159149 
z"/>
<path fill="#1C7BB1" opacity="1.000000" stroke="none" 
	d="
M58.270695,154.282120 
	C56.720188,146.931717 55.368954,139.874588 53.992222,132.401062 
	C54.151691,129.878998 54.336662,127.773323 54.691650,125.317505 
	C56.112656,140.176651 59.524391,154.782104 67.016861,168.620789 
	C64.748863,165.736053 62.314777,162.564301 60.153980,159.216156 
	C59.284130,157.868332 59.013382,156.133881 58.270695,154.282120 
z"/>
<path fill="#2479A6" opacity="1.000000" stroke="none" 
	d="
M135.131882,147.010193 
	C138.036591,136.656296 139.989761,126.170288 138.898560,115.363876 
	C138.674026,113.140488 137.643097,110.998528 136.945953,108.418671 
	C137.941040,109.580872 139.498672,111.013741 139.922165,112.726967 
	C142.749069,124.163139 139.678741,135.172531 136.736069,146.591614 
	C135.942047,146.992081 135.536957,147.001129 135.131882,147.010193 
z"/>
<path fill="#1C78B1" opacity="1.000000" stroke="none" 
	d="
M135.075577,147.401123 
	C135.536957,147.001129 135.942047,146.992081 136.650055,146.974335 
	C134.479141,153.213394 132.005295,159.461151 129.210770,165.838135 
	C130.933151,159.908920 132.976212,153.850479 135.075577,147.401123 
z"/>
<path fill="#2479A6" opacity="1.000000" stroke="none" 
	d="
M116.407341,100.899467 
	C120.523888,97.377823 125.388985,99.384644 130.581039,99.999756 
	C131.978439,101.151031 132.959335,102.259056 133.954163,103.717087 
	C128.668884,100.720886 123.012634,99.344933 116.407341,100.899467 
z"/>
<path fill="#1C7BB1" opacity="1.000000" stroke="none" 
	d="
M79.471886,157.951324 
	C81.859886,153.731384 84.564667,149.388351 87.620483,144.989899 
	C85.243896,149.232407 82.516289,153.530334 79.471886,157.951324 
z"/>
<path fill="#1C7BB1" opacity="1.000000" stroke="none" 
	d="
M88.340919,144.946228 
	C92.330696,140.935730 100.522949,140.664276 105.974655,144.721115 
	C100.370476,142.741959 94.564423,142.647064 88.340919,144.946228 
z"/>
<path fill="#1C7BB1" opacity="1.000000" stroke="none" 
	d="
M74.276817,167.897293 
	C75.409431,165.050125 76.884018,162.118057 78.676270,159.015625 
	C77.535553,161.834305 76.077171,164.823349 74.276817,167.897293 
z"/>
<path fill="#1C78B1" opacity="1.000000" stroke="none" 
	d="
M122.135956,170.242813 
	C124.113579,168.702560 126.221046,167.451340 128.637756,166.051529 
	C128.266678,169.678436 127.038475,172.663116 122.135956,170.242813 
z"/>
<path fill="#1C7BB1" opacity="1.000000" stroke="none" 
	d="
M67.140167,169.251892 
	C69.125542,168.689438 71.232712,168.455185 73.658310,168.080353 
	C72.403526,172.688171 71.307266,172.955978 67.140167,169.251892 
z"/>
<path fill="#1877AB" opacity="1.000000" stroke="none" 
	d="
M109.060059,148.284012 
	C110.032814,149.367676 111.023438,150.814102 112.053558,152.611572 
	C111.088020,151.524002 110.082970,150.085373 109.060059,148.284012 
z"/>
<path fill="#1C78B1" opacity="1.000000" stroke="none" 
	d="
M115.066597,160.243439 
	C116.031532,161.348145 117.017166,162.817017 118.027618,164.634796 
	C117.064049,163.524994 116.075676,162.066284 115.066597,160.243439 
z"/>
<path fill="#1877AB" opacity="1.000000" stroke="none" 
	d="
M113.020073,154.338608 
	C113.672630,155.413635 114.318832,156.861588 114.906830,158.663635 
	C114.236984,157.582352 113.625351,156.146927 113.020073,154.338608 
z"/>
<path fill="#1C78B1" opacity="1.000000" stroke="none" 
	d="
M118.049973,165.282654 
	C118.666626,165.749786 119.306793,166.549728 119.999054,167.667633 
	C119.391937,167.195557 118.732719,166.405502 118.049973,165.282654 
z"/>
<path fill="#1877AB" opacity="1.000000" stroke="none" 
	d="
M107.098785,146.160522 
	C107.644035,146.345764 108.302338,146.823685 109.024223,147.633789 
	C108.462479,147.461700 107.837151,146.957443 107.098785,146.160522 
z"/>
<path fill="#1C78B1" opacity="1.000000" stroke="none" 
	d="
M121.147736,169.169159 
	C121.283333,169.155243 121.567322,169.340714 121.954422,169.765182 
	C121.770836,169.831711 121.517036,169.619827 121.147736,169.169159 
z"/>
<path fill="#1C78B1" opacity="1.000000" stroke="none" 
	d="
M120.145744,168.145493 
	C120.292038,168.128021 120.584274,168.309967 120.952042,168.746292 
	C120.751152,168.817017 120.505852,168.598434 120.145744,168.145493 
z"/>
<path fill="#1877AB" opacity="1.000000" stroke="none" 
	d="
M112.158409,153.104523 
	C112.303314,153.091934 112.593109,153.283630 112.960503,153.729797 
	C112.793167,153.759125 112.548233,153.533966 112.158409,153.104523 
z"/>
<path fill="#2479A6" opacity="1.000000" stroke="none" 
	d="
M134.855896,104.829781 
	C134.706497,104.855820 134.409409,104.679337 134.021469,104.251511 
	C134.189819,104.209198 134.449005,104.418221 134.855896,104.829781 
z"/>
<path fill="#2479A6" opacity="1.000000" stroke="none" 
	d="
M135.894913,105.914581 
	C135.730392,105.936554 135.439178,105.724106 135.055801,105.254005 
	C135.231842,105.224289 135.500015,105.452225 135.894913,105.914581 
z"/>
<path fill="#2479A6" opacity="1.000000" stroke="none" 
	d="
M136.883209,107.871201 
	C136.704315,107.875854 136.416870,107.663849 136.150925,107.172577 
	C136.401672,107.124481 136.602417,107.378227 136.883209,107.871201 
z"/>
<path fill="#000000" opacity="1.000000" stroke="none" 
	d="
M97.922882,94.964249 
	C97.525681,94.982697 97.128471,95.001144 96.164688,94.678909 
	C91.045868,94.195915 86.493622,94.053604 81.941376,93.911285 
	C81.351761,93.488625 80.762146,93.065964 80.421143,92.166031 
	C79.143806,85.766411 77.617867,79.844055 76.053070,73.473343 
	C76.010139,70.888863 75.785851,68.721230 76.085167,66.628502 
	C76.262802,65.386497 77.265739,64.262535 78.156509,63.434311 
	C87.605972,63.794922 96.796501,63.806725 106.444916,63.883034 
	C110.178734,63.947544 113.454674,63.947544 116.970558,63.947544 
	C116.613678,69.162651 116.539200,73.738739 115.926384,78.241570 
	C115.291977,82.903046 114.135323,87.493439 113.207100,92.114929 
	C113.207100,92.114929 113.071739,92.502022 112.614731,92.758331 
	C107.412781,93.664520 102.667831,94.314384 97.922882,94.964249 
z"/>
<path fill="#0897CB" opacity="1.000000" stroke="none" 
	d="
M77.897591,63.085495 
	C77.265739,64.262535 76.262802,65.386497 76.085167,66.628502 
	C75.785851,68.721230 76.010139,70.888863 76.037338,73.880417 
	C76.044121,75.826317 76.027771,76.916779 76.011414,78.007248 
	C74.865166,78.259880 73.718918,78.512512 72.064034,78.535492 
	C71.351662,73.906693 71.147911,69.507545 71.043457,64.766113 
	C73.096405,62.287117 75.050064,60.150417 77.256432,57.994652 
	C77.677628,57.962967 77.846115,57.950344 78.444336,57.948059 
	C82.578972,57.645485 86.283859,57.332577 89.990700,57.437271 
	C89.994324,59.249996 89.996002,60.645107 89.543724,62.041485 
	C85.359039,62.390331 81.628319,62.737915 77.897591,63.085495 
z"/>
<path fill="#2691B5" opacity="1.000000" stroke="none" 
	d="
M70.944168,65.108398 
	C71.147911,69.507545 71.351662,73.906693 71.738098,78.674667 
	C72.299942,82.476097 72.916336,85.907677 72.931404,89.341881 
	C72.936783,90.567795 71.486069,91.800102 70.344994,92.817253 
	C69.989998,92.605019 69.983177,92.184875 70.371292,92.097862 
	C71.139496,91.251945 71.916435,90.449738 71.839081,89.740746 
	C70.941338,81.511932 69.914604,73.297195 68.922058,65.078728 
	C68.922050,65.078728 68.877731,64.829765 69.238327,64.820099 
	C70.047340,64.909760 70.495758,65.009079 70.944168,65.108398 
z"/>
<path fill="#2191BD" opacity="1.000000" stroke="none" 
	d="
M76.048431,78.391388 
	C76.027771,76.916779 76.044121,75.826317 76.076202,74.328781 
	C77.617867,79.844055 79.143806,85.766411 80.355354,91.891220 
	C78.722458,87.654297 77.403954,83.214912 76.048431,78.391388 
z"/>
<path fill="#2182B4" opacity="1.000000" stroke="none" 
	d="
M82.235657,94.113205 
	C86.493622,94.053604 91.045868,94.195915 95.866364,94.682663 
	C93.020782,95.078926 89.906944,95.130737 86.401749,95.106262 
	C84.850227,94.791679 83.690079,94.553406 82.235657,94.113205 
z"/>
<path fill="#238BB8" opacity="1.000000" stroke="none" 
	d="
M65.117706,93.121712 
	C63.379681,93.777039 61.641655,94.432365 59.468590,95.055603 
	C59.033550,95.023514 58.934761,94.921021 59.118980,94.607010 
	C61.173767,93.829308 63.044331,93.365616 64.965591,92.956871 
	C65.016296,93.011818 65.117706,93.121712 65.117706,93.121712 
z"/>
<path fill="#238BB8" opacity="1.000000" stroke="none" 
	d="
M59.083023,95.074692 
	C58.025887,96.095848 56.919273,97.065834 55.482964,98.107742 
	C55.153267,98.179665 55.049675,98.060020 55.125847,97.702225 
	C56.446262,96.536636 57.690514,95.728828 58.934761,94.921021 
	C58.934761,94.921021 59.033550,95.023514 59.083023,95.074692 
z"/>
<path fill="#2691B5" opacity="1.000000" stroke="none" 
	d="
M69.010811,93.028969 
	C68.254601,93.020836 67.498390,93.012703 66.366272,92.783936 
	C65.990372,92.563301 65.991226,92.158569 66.367767,92.095993 
	C67.503983,92.080696 68.263649,92.127975 69.018799,92.388664 
	C69.014267,92.602074 69.010811,93.028969 69.010811,93.028969 
z"/>
<path fill="#238BB8" opacity="1.000000" stroke="none" 
	d="
M69.256012,93.030609 
	C69.010811,93.028969 69.014267,92.602074 69.259155,92.336517 
	C69.504051,92.070969 69.983177,92.184875 69.983177,92.184875 
	C69.983177,92.184875 69.989998,92.605019 69.990807,92.815979 
	C69.991615,93.026947 69.501221,93.032249 69.256012,93.030609 
z"/>
<path fill="#238BB8" opacity="1.000000" stroke="none" 
	d="
M65.991226,92.158569 
	C65.991226,92.158569 65.990372,92.563301 65.988472,92.765030 
	C65.986572,92.966751 65.550201,93.038521 65.333954,93.080116 
	C65.117706,93.121712 65.016296,93.011818 65.058029,92.721298 
	C65.396912,92.340042 65.694069,92.249306 65.991226,92.158569 
z"/>
<path fill="#000000" opacity="1.000000" stroke="none" 
	d="
M125.878128,57.163773 
	C125.878128,57.163769 125.511177,57.047234 125.212395,56.632557 
	C124.291389,52.807140 123.669159,49.396404 123.018066,45.579628 
	C120.317520,36.579182 117.645844,27.984768 115.060669,19.668602 
	C117.992218,20.981749 121.477509,22.542934 124.972008,24.066378 
	C124.981224,24.028637 124.905655,24.010572 124.993698,24.279856 
	C125.415100,24.650105 125.748451,24.751070 126.261208,24.914396 
	C126.440605,24.976757 126.819733,25.000166 126.992081,25.305326 
	C133.389023,32.430515 139.613632,39.250542 145.907227,46.438400 
	C147.673309,50.901905 149.370377,54.997581 151.067444,59.093262 
	C150.882263,59.377331 150.697067,59.661396 149.865295,60.017052 
	C141.438507,59.113682 133.658325,58.138725 125.878128,57.163773 
z"/>
<path fill="#0688C3" opacity="1.000000" stroke="none" 
	d="
M140.544647,28.104534 
	C141.034119,28.377607 141.191986,28.572044 141.489655,28.889576 
	C142.464615,30.318644 143.312561,31.614258 144.447235,33.078484 
	C146.740616,36.954758 148.747269,40.662422 150.922592,44.675232 
	C150.265167,45.292236 149.439056,45.604095 148.053741,45.969177 
	C147.494537,46.022396 147.016266,45.988552 146.934128,45.644547 
	C146.090561,43.831635 145.560776,42.170181 144.527573,40.927181 
	C140.074188,35.569527 135.473175,30.334583 131.116486,24.817825 
	C131.554367,24.025429 131.801682,23.470167 132.048996,22.914909 
	C132.751129,22.969940 133.453247,23.024971 134.503159,23.125063 
	C136.634048,24.792168 138.417175,26.414209 140.544647,28.104534 
z"/>
<path fill="#1F7FAD" opacity="1.000000" stroke="none" 
	d="
M126.101151,57.463547 
	C133.658325,58.138725 141.438507,59.113682 149.638733,60.145927 
	C149.534912,60.694092 149.011047,61.184963 148.256653,61.812687 
	C142.005890,60.958538 135.979874,60.000584 129.970169,58.949482 
	C128.723801,58.731487 127.537933,58.167721 126.101151,57.463547 
z"/>
<path fill="#1F7FAD" opacity="1.000000" stroke="none" 
	d="
M147.016266,45.988552 
	C147.016266,45.988552 147.494537,46.022396 147.733002,46.045097 
	C149.112808,50.196846 150.254150,54.325897 151.231476,58.774101 
	C149.370377,54.997581 147.673309,50.901905 146.201630,46.416336 
	C146.623428,46.013817 146.819839,46.001186 147.016266,45.988552 
z"/>
<path fill="#000000" opacity="1.000000" stroke="none" 
	d="
M66.367767,92.095993 
	C65.694069,92.249306 65.396912,92.340042 65.007324,92.666351 
	C63.044331,93.365616 61.173767,93.829308 59.118984,94.607010 
	C57.690514,95.728828 56.446262,96.536636 55.073223,97.643127 
	C53.516357,99.217278 52.088280,100.492729 50.343529,101.820480 
	C49.240406,99.372711 48.453957,96.872643 47.362572,94.195152 
	C44.041714,86.134277 41.648087,78.131454 42.154747,69.226662 
	C50.908813,67.795021 59.511082,66.388199 68.517700,65.030052 
	C69.914604,73.297195 70.941338,81.511932 71.839081,89.740746 
	C71.916435,90.449738 71.139496,91.251945 70.371292,92.097862 
	C69.983177,92.184875 69.504051,92.070969 69.263687,92.123108 
	C68.263649,92.127975 67.503983,92.080696 66.367767,92.095993 
z"/>
<path fill="#119ECE" opacity="1.000000" stroke="none" 
	d="
M71.043457,64.766113 
	C70.495758,65.009079 70.047340,64.909760 69.268906,64.697418 
	C66.805763,64.379715 64.672012,64.004173 62.539669,64.011963 
	C59.621975,64.022614 57.822086,63.104855 58.472382,59.438454 
	C61.620300,58.411312 64.339233,57.799747 67.443192,57.102623 
	C68.940811,53.343246 70.053406,49.669430 71.427704,45.876080 
	C72.122452,45.151596 72.555504,44.546650 73.014107,43.627563 
	C73.327042,42.540379 73.614426,41.767334 73.901810,40.994293 
	C75.047874,40.713882 76.193947,40.433472 77.600426,40.474297 
	C77.210464,44.886913 76.391556,48.962032 75.994461,53.077850 
	C75.840294,54.675804 76.639053,56.365700 77.003716,58.013714 
	C75.050064,60.150417 73.096405,62.287117 71.043457,64.766113 
z"/>
<path fill="#37A6C4" opacity="1.000000" stroke="none" 
	d="
M67.058167,57.188179 
	C64.339233,57.799747 61.620300,58.411312 58.471664,59.033833 
	C53.644924,59.712315 49.247883,60.379837 44.417915,61.056007 
	C43.984989,61.064655 43.969292,60.633656 44.377365,60.344757 
	C52.209682,59.099968 59.633926,58.144073 67.058167,57.188179 
z"/>
<path fill="#000000" opacity="1.000000" stroke="none" 
	d="
M67.443192,57.102623 
	C59.633926,58.144073 52.209682,59.099968 44.376987,60.129120 
	C45.055069,56.233040 46.094494,52.249893 47.252132,48.301407 
	C47.693687,46.795345 48.406254,45.368732 49.352173,43.432037 
	C50.833641,41.320534 51.958252,39.682903 53.082859,38.045273 
	C53.082859,38.045273 53.022236,38.023441 53.281094,37.973114 
	C53.721153,37.622486 53.902351,37.322186 54.083553,37.021889 
	C54.083553,37.021889 54.016468,37.016365 54.275837,36.966713 
	C54.720085,36.618759 54.904964,36.320454 55.089844,36.022148 
	C55.089840,36.022148 55.026367,36.014915 55.334099,35.924747 
	C55.796543,35.222931 55.951263,34.611282 56.105980,33.999634 
	C56.105980,33.999634 56.030178,34.017605 56.387314,34.015091 
	C57.196369,33.347824 57.648289,32.683075 58.100212,32.018326 
	C58.427692,31.973391 58.682743,31.813158 59.261902,31.284473 
	C60.134087,30.706736 60.609726,30.382154 61.085365,30.057573 
	C61.085365,30.057573 61.019806,30.022367 61.318848,29.959133 
	C62.083862,29.273872 62.549839,28.651844 63.015816,28.029816 
	C63.015820,28.029818 63.011131,28.009243 63.353710,27.985722 
	C64.817787,26.982803 65.939278,26.003405 67.060776,25.024008 
	C67.060776,25.024008 67.005119,25.003098 67.376038,24.996988 
	C71.367355,23.244209 74.976181,21.471958 78.637817,19.816509 
	C78.850128,19.720522 79.491058,20.572592 79.932518,20.983456 
	C79.932518,20.983456 79.994713,20.989807 79.708923,21.108656 
	C79.250221,21.825842 79.077293,22.424177 78.904366,23.022512 
	C78.904366,23.022512 78.986504,22.995699 78.646980,23.111023 
	C75.925713,30.163448 73.543976,37.100552 71.098801,44.361847 
	C71.078903,45.122566 71.122452,45.559090 71.165993,45.995613 
	C70.053406,49.669430 68.940811,53.343246 67.443192,57.102623 
z"/>
<path fill="#32A4C4" opacity="1.000000" stroke="none" 
	d="
M52.767860,38.152245 
	C51.958252,39.682903 50.833641,41.320534 49.374817,43.054932 
	C50.178020,41.520874 51.315441,39.890045 52.767860,38.152245 
z"/>
<path fill="#32A4C4" opacity="1.000000" stroke="none" 
	d="
M66.668533,25.006779 
	C65.939278,26.003405 64.817787,26.982803 63.363888,27.989388 
	C63.050114,27.291462 63.068741,26.566353 63.126850,25.483170 
	C64.202980,25.079914 65.239632,25.034733 66.668533,25.006779 
z"/>
<path fill="#32A4C4" opacity="1.000000" stroke="none" 
	d="
M57.810623,32.124542 
	C57.648289,32.683075 57.196369,33.347824 56.396507,34.052940 
	C56.539394,33.472462 57.030212,32.851608 57.810623,32.124542 
z"/>
<path fill="#32A4C4" opacity="1.000000" stroke="none" 
	d="
M62.724480,28.117599 
	C62.549839,28.651844 62.083862,29.273872 61.335846,29.992229 
	C61.513580,29.460836 61.973362,28.833113 62.724480,28.117599 
z"/>
<path fill="#32A4C4" opacity="1.000000" stroke="none" 
	d="
M60.797318,30.123062 
	C60.609726,30.382154 60.134087,30.706736 59.342339,31.067287 
	C59.520573,30.798359 60.014923,30.493456 60.797318,30.123062 
z"/>
<path fill="#32A4C4" opacity="1.000000" stroke="none" 
	d="
M55.898117,34.213257 
	C55.951263,34.611282 55.796543,35.222931 55.344559,35.954926 
	C55.261608,35.525810 55.475929,34.976341 55.898117,34.213257 
z"/>
<path fill="#32A4C4" opacity="1.000000" stroke="none" 
	d="
M54.877129,36.161949 
	C54.904964,36.320454 54.720085,36.618759 54.277470,37.000332 
	C54.234627,36.822987 54.449520,36.562370 54.877129,36.161949 
z"/>
<path fill="#32A4C4" opacity="1.000000" stroke="none" 
	d="
M53.870449,37.160694 
	C53.902351,37.322186 53.721153,37.622486 53.281334,38.005325 
	C53.234261,37.825081 53.445805,37.562290 53.870449,37.160694 
z"/>
<path fill="#0688C3" opacity="1.000000" stroke="none" 
	d="
M123.017914,56.990891 
	C121.365425,58.771053 119.712936,60.551216 117.597168,62.673981 
	C113.415947,63.009716 109.697983,63.002838 105.607315,62.982780 
	C104.488724,62.938412 103.742851,62.907219 102.997787,62.460663 
	C102.985809,60.364334 102.973015,58.683369 103.349388,56.990944 
	C105.194115,56.625294 106.649666,56.271095 108.291199,55.941570 
	C108.477165,55.966240 108.852333,55.960815 109.167183,55.969959 
	C109.692009,55.978123 109.901993,55.977146 110.316048,56.024109 
	C110.520111,56.072052 110.908569,56.229717 111.125824,56.517822 
	C116.650909,58.847492 118.509598,57.564659 117.806770,52.147652 
	C117.323502,48.422955 116.554955,44.735271 116.327652,41.025288 
	C117.847992,41.004131 118.954590,40.988735 120.240906,41.264183 
	C120.939209,43.057102 121.457794,44.559181 121.985123,46.486198 
	C122.335220,50.271057 122.676567,53.630974 123.017914,56.990891 
z"/>
<path fill="#2182B4" opacity="1.000000" stroke="none" 
	d="
M105.980026,62.995964 
	C109.697983,63.002838 113.415947,63.009716 117.561607,63.027054 
	C117.871872,68.765060 117.796036,74.493942 117.610794,80.219299 
	C117.557556,81.864609 117.188622,83.499702 116.950005,85.569778 
	C115.879440,87.922501 114.823303,89.844933 113.487137,91.941147 
	C114.135323,87.493439 115.291977,82.903046 115.926384,78.241570 
	C116.539200,73.738739 116.613678,69.162651 116.970558,63.947544 
	C113.454674,63.947544 110.178734,63.947544 106.443077,63.677391 
	C105.983360,63.407242 105.980026,62.995964 105.980026,62.995964 
z"/>
<path fill="#1F7FAD" opacity="1.000000" stroke="none" 
	d="
M123.368805,57.007103 
	C122.676567,53.630974 122.335220,50.271057 122.252769,46.465279 
	C122.690086,46.008167 122.868507,45.996914 123.046928,45.985664 
	C123.669159,49.396404 124.291389,52.807140 125.020370,56.619019 
	C124.657982,57.021214 124.188835,57.022266 123.368805,57.007103 
z"/>
<path fill="#0D9CCF" opacity="1.000000" stroke="none" 
	d="
M114.445465,13.040154 
	C114.838554,13.078462 114.937210,13.557744 114.837982,14.102506 
	C114.514999,15.730608 114.291237,16.813950 113.753433,17.954697 
	C112.976067,19.333151 112.512741,20.654200 111.744576,22.109797 
	C110.596657,22.505604 109.753586,22.766865 108.640488,22.839638 
	C105.915047,21.094946 103.459633,19.538744 100.733170,17.989002 
	C100.282303,18.013985 100.102493,18.032505 99.954628,18.047268 
	C99.986565,18.043510 99.954544,18.099758 99.869087,17.803585 
	C99.190727,16.974072 98.597816,16.440731 98.004913,15.907393 
	C98.616776,14.506543 99.228638,13.105694 99.932236,11.392206 
	C104.700111,11.720328 109.376251,12.361088 114.445465,13.040154 
z"/>
<path fill="#2B9EC3" opacity="1.000000" stroke="none" 
	d="
M77.256432,57.994652 
	C76.639053,56.365700 75.840294,54.675804 75.994461,53.077850 
	C76.391556,48.962032 77.210464,44.886913 77.947594,40.404602 
	C80.414276,35.055424 82.794212,30.097174 85.546608,25.035583 
	C85.919075,24.932245 86.089638,25.081520 86.043030,25.453655 
	C81.677330,35.160515 77.890800,44.640560 77.986938,55.525383 
	C77.996620,56.559807 78.005608,57.248764 78.014595,57.937725 
	C77.846115,57.950344 77.677628,57.962967 77.256432,57.994652 
z"/>
<path fill="#32A4C4" opacity="1.000000" stroke="none" 
	d="
M71.162239,44.037655 
	C73.543976,37.100552 75.925713,30.163448 78.633492,23.069979 
	C77.307167,28.679726 75.654808,34.445839 73.952133,40.603123 
	C73.614426,41.767334 73.327042,42.540379 72.710022,43.647812 
	C71.974335,44.000690 71.568283,44.019173 71.162239,44.037655 
z"/>
<path fill="#32A4C4" opacity="1.000000" stroke="none" 
	d="
M80.246582,20.908306 
	C79.491058,20.572592 78.850128,19.720522 78.637817,19.816509 
	C74.976181,21.471958 71.367355,23.244209 67.380669,25.026352 
	C70.129257,19.473766 76.236992,19.296410 81.631363,17.087353 
	C81.515236,18.276564 81.037941,19.554859 80.246582,20.908306 
z"/>
<path fill="#2B9EC3" opacity="1.000000" stroke="none" 
	d="
M97.614548,15.930149 
	C98.597816,16.440731 99.190727,16.974072 99.501175,17.761564 
	C96.507530,18.372255 93.796341,18.728792 91.009613,19.005180 
	C90.934074,18.925032 90.784027,18.763779 90.784027,18.763779 
	C92.930748,17.826822 95.077469,16.889864 97.614548,15.930149 
z"/>
<path fill="#2B9EC3" opacity="1.000000" stroke="none" 
	d="
M87.803383,21.797615 
	C88.610733,20.880325 89.418083,19.963037 90.504730,18.904762 
	C90.784027,18.763779 90.934074,18.925032 90.961380,19.344635 
	C90.020988,20.537920 89.053291,21.311602 88.015076,22.013338 
	C87.944550,21.941393 87.803383,21.797615 87.803383,21.797615 
z"/>
<path fill="#2B9EC3" opacity="1.000000" stroke="none" 
	d="
M85.832954,24.858582 
	C86.260849,23.906078 86.774857,23.027239 87.546127,21.973007 
	C87.803383,21.797615 87.944550,21.941393 87.979813,22.335218 
	C87.373268,23.513203 86.731453,24.297359 86.089638,25.081520 
	C86.089638,25.081520 85.919075,24.932245 85.832954,24.858582 
z"/>
<path fill="#32A4C4" opacity="1.000000" stroke="none" 
	d="
M79.108109,22.801937 
	C79.077293,22.424177 79.250221,21.825842 79.701485,21.078297 
	C79.757172,21.479845 79.534508,22.030603 79.108109,22.801937 
z"/>
<path fill="#0792C8" opacity="1.000000" stroke="none" 
	d="
M114.067474,17.897289 
	C114.291237,16.813950 114.514999,15.730608 114.877090,14.344026 
	C117.383217,14.723572 119.751015,15.406360 122.488213,16.152870 
	C124.280670,16.860416 125.703735,17.504242 127.463196,18.222353 
	C128.019455,18.489391 128.238129,18.683487 128.620392,19.023556 
	C129.745667,20.251972 130.706116,21.335756 131.857788,22.667223 
	C131.801682,23.470167 131.554367,24.025429 130.708908,24.806963 
	C129.013748,25.022213 127.916740,25.011189 126.819733,25.000166 
	C126.819733,25.000166 126.440605,24.976757 126.082245,24.749752 
	C125.473030,24.317051 125.200287,24.146326 124.905655,24.010572 
	C124.905655,24.010572 124.981224,24.028637 124.888596,23.723526 
	C121.219803,21.578041 117.643646,19.737665 114.067474,17.897289 
z"/>
<path fill="#1981BE" opacity="1.000000" stroke="none" 
	d="
M87.059387,114.137955 
	C87.965164,112.442184 88.870934,110.746422 90.161873,108.329559 
	C91.111382,112.780228 92.473595,112.499146 95.225746,110.085419 
	C99.680611,106.178375 104.355217,107.382149 105.967758,112.940338 
	C106.009621,114.084267 106.010979,114.525482 105.811752,115.327553 
	C105.077728,120.117973 104.544296,124.547539 104.008408,128.516235 
	C104.004997,126.563591 104.005768,125.071800 104.002777,123.580017 
	C103.987076,115.756760 103.327232,115.359383 95.743690,116.864677 
	C92.760223,117.456886 91.937241,118.976997 92.004944,121.645271 
	C92.067108,124.094788 91.998474,126.547630 91.670403,129.058136 
	C88.953316,128.071091 86.553299,127.024933 84.153275,125.978775 
	C84.153275,125.978775 84.022400,125.561508 83.994568,124.964958 
	C84.997612,120.958260 86.028503,117.548103 87.059387,114.137955 
M103.498627,114.474358 
	C103.498627,114.474358 103.512268,114.513062 103.498627,114.474358 
z"/>
<path fill="#2681B4" opacity="1.000000" stroke="none" 
	d="
M106.012337,114.966690 
	C106.010979,114.525482 106.009621,114.084267 106.006500,113.312119 
	C107.252815,113.694153 108.570923,114.310997 109.725548,115.152222 
	C110.563690,115.762863 111.185455,116.670494 111.903702,117.445709 
	C111.026543,118.167488 110.149384,118.889267 109.392632,119.511963 
	C112.940933,120.820854 113.166451,125.128456 109.085564,130.457214 
	C108.043839,128.436142 107.474960,126.594460 107.191246,124.709846 
	C106.704453,121.476257 106.395782,118.215843 106.012337,114.966690 
z"/>
<path fill="#1C7BB1" opacity="1.000000" stroke="none" 
	d="
M84.161354,126.301407 
	C86.553299,127.024933 88.953316,128.071091 91.897705,129.156830 
	C91.963394,130.455139 91.484703,131.713898 90.734985,133.156845 
	C89.630928,133.580566 88.797890,133.820099 87.964851,134.059631 
	C87.264854,133.686920 86.603798,133.177597 85.858147,132.965134 
	C82.591774,132.034424 79.952751,131.016403 84.416107,127.886040 
	C84.558754,127.786011 84.261581,127.058853 84.161354,126.301407 
z"/>
<path fill="#1981BE" opacity="1.000000" stroke="none" 
	d="
M87.992157,134.298416 
	C88.797890,133.820099 89.630928,133.580566 91.194740,133.161804 
	C95.624847,132.997467 99.324173,133.012390 102.807007,133.260101 
	C101.730515,134.943619 100.870514,136.394333 100.010513,137.845047 
	C97.881912,136.890442 95.753311,135.935822 93.154663,134.829773 
	C92.410248,134.652817 92.198006,134.758011 92.047882,134.993927 
	C92.011337,135.434891 91.974785,135.875839 91.560684,136.607346 
	C90.168945,136.266052 89.154762,135.634216 88.140579,135.002396 
	C88.140579,135.002396 88.019463,134.537201 87.992157,134.298416 
z"/>
<path fill="#0D7BBE" opacity="1.000000" stroke="none" 
	d="
M105.811745,115.327553 
	C106.395782,118.215843 106.704453,121.476257 107.191246,124.709846 
	C107.474960,126.594460 108.043839,128.436142 108.732224,130.555298 
	C108.206421,131.481598 107.432793,132.149734 106.023102,132.929047 
	C104.916992,133.032104 104.446938,133.023987 103.983078,132.612091 
	C103.996452,131.131256 104.003654,130.054169 104.010857,128.977097 
	C104.544296,124.547539 105.077728,120.117973 105.811745,115.327553 
z"/>
<path fill="#2479A6" opacity="1.000000" stroke="none" 
	d="
M86.683029,114.191345 
	C86.028503,117.548103 84.997612,120.958260 83.953812,124.750137 
	C83.134552,122.042839 82.328209,118.953804 81.531853,115.903038 
	C83.611092,115.180908 84.958878,114.712822 86.683029,114.191345 
z"/>
<path fill="#2182B4" opacity="1.000000" stroke="none" 
	d="
M103.976891,133.015869 
	C104.446938,133.023987 104.916992,133.032104 105.739090,133.049667 
	C105.607483,135.005722 105.123817,136.952347 104.577538,139.150970 
	C103.088203,138.706223 101.921104,138.357697 100.382263,137.927109 
	C100.870514,136.394333 101.730515,134.943619 103.045212,133.257294 
	C103.499908,133.021683 103.976891,133.015869 103.976891,133.015869 
z"/>
<path fill="#1C7BB1" opacity="1.000000" stroke="none" 
	d="
M88.079277,135.398407 
	C89.154762,135.634216 90.168945,136.266052 91.488503,136.931396 
	C91.007942,137.613007 90.222008,138.261124 89.436066,138.909241 
	C88.963371,137.870972 88.490677,136.832703 88.079277,135.398407 
z"/>
<path fill="#1C7BB1" opacity="1.000000" stroke="none" 
	d="
M92.266998,134.951080 
	C92.198006,134.758011 92.410248,134.652817 92.799202,134.729065 
	C92.913788,134.779770 92.486122,134.908234 92.266998,134.951080 
z"/>
<path fill="#2182B4" opacity="1.000000" stroke="none" 
	d="
M98.272400,95.163513 
	C102.667831,94.314384 107.412781,93.664520 112.584427,92.961121 
	C108.684685,96.480339 103.682167,96.090775 98.272400,95.163513 
z"/>
<path fill="#2191BD" opacity="1.000000" stroke="none" 
	d="
M105.607315,62.982784 
	C105.980026,62.995964 105.983360,63.407242 105.985199,63.612885 
	C96.796501,63.806725 87.605972,63.794922 78.156509,63.434311 
	C81.628319,62.737915 85.359039,62.390331 89.906929,62.223953 
	C94.815056,62.562115 98.906013,62.719074 102.996979,62.876030 
	C103.742851,62.907219 104.488724,62.938412 105.607315,62.982784 
z"/>
<path fill="#0792C8" opacity="1.000000" stroke="none" 
	d="
M102.997787,62.460667 
	C98.906013,62.719074 94.815056,62.562115 90.360886,62.222687 
	C89.996002,60.645107 89.994324,59.249996 90.454849,57.421814 
	C94.931435,56.993294 98.945831,56.997849 102.960220,57.002403 
	C102.973015,58.683369 102.985809,60.364334 102.997787,62.460667 
z"/>
<path fill="#268EB4" opacity="1.000000" stroke="none" 
	d="
M103.349388,56.990944 
	C98.945831,56.997849 94.931435,56.993294 90.452896,57.004204 
	C86.283859,57.332577 82.578972,57.645485 78.444336,57.948059 
	C78.005608,57.248764 77.996620,56.559807 78.337051,55.568649 
	C80.820694,55.307995 82.955040,55.344032 85.089127,55.392086 
	C92.761215,55.564835 100.433197,55.741634 108.105225,55.916901 
	C106.649666,56.271095 105.194115,56.625294 103.349388,56.990944 
z"/>
<path fill="#2294C2" opacity="1.000000" stroke="none" 
	d="
M113.753433,17.954697 
	C117.643646,19.737665 121.219803,21.578041 124.879379,23.761267 
	C121.477509,22.542934 117.992218,20.981749 115.060669,19.668602 
	C117.645844,27.984768 120.317520,36.579182 123.018066,45.579628 
	C122.868507,45.996914 122.690086,46.008167 122.244019,46.040340 
	C121.457794,44.559181 120.939209,43.057102 120.214462,40.869137 
	C117.355331,34.113914 114.702377,28.044582 112.049423,21.975250 
	C112.512741,20.654200 112.976067,19.333151 113.753433,17.954697 
z"/>
<path fill="#228ABE" opacity="1.000000" stroke="none" 
	d="
M126.992081,25.305326 
	C127.916740,25.011189 129.013748,25.022213 130.518341,25.044100 
	C135.473175,30.334583 140.074188,35.569527 144.527573,40.927181 
	C145.560776,42.170181 146.090561,43.831635 146.934128,45.644547 
	C146.819839,46.001186 146.623428,46.013817 146.132629,46.048508 
	C139.613632,39.250542 133.389023,32.430515 126.992081,25.305326 
z"/>
<path fill="#2294C2" opacity="1.000000" stroke="none" 
	d="
M124.993698,24.279856 
	C125.200287,24.146326 125.473030,24.317051 125.902847,24.687389 
	C125.748451,24.751070 125.415100,24.650105 124.993698,24.279856 
z"/>
<path fill="#14A5D5" opacity="1.000000" stroke="none" 
	d="
M71.098801,44.361847 
	C71.568283,44.019173 71.974335,44.000690 72.684464,43.961952 
	C72.555504,44.546650 72.122452,45.151596 71.427704,45.876080 
	C71.122452,45.559090 71.078903,45.122566 71.098801,44.361847 
z"/>
<path fill="#000000" opacity="1.000000" stroke="none" 
	d="
M108.291199,55.941574 
	C100.433197,55.741634 92.761215,55.564835 85.089127,55.392086 
	C82.955040,55.344032 80.820694,55.307995 78.336357,55.223186 
	C77.890800,44.640560 81.677330,35.160515 86.043030,25.453655 
	C86.731453,24.297359 87.373268,23.513203 88.050339,22.407164 
	C89.053291,21.311602 90.020988,20.537920 91.036919,19.424784 
	C93.796341,18.728792 96.507530,18.372255 99.586632,18.057739 
	C99.954544,18.099758 99.986565,18.043510 100.038589,18.293468 
	C100.393051,18.643427 100.695488,18.743429 101.304420,18.998592 
	C105.035461,24.119360 108.460007,29.084967 111.927032,34.446377 
	C113.548470,41.707352 115.127411,48.572529 116.727623,55.530163 
	C114.001289,55.857914 112.454933,56.043816 110.908569,56.229713 
	C110.908569,56.229717 110.520111,56.072052 110.220161,55.777138 
	C109.564255,55.641758 109.208290,55.801289 108.852333,55.960815 
	C108.852333,55.960815 108.477165,55.966240 108.291199,55.941574 
z"/>
<path fill="#0792C8" opacity="1.000000" stroke="none" 
	d="
M111.744576,22.109797 
	C114.702377,28.044582 117.355331,34.113914 120.034744,40.578293 
	C118.954590,40.988735 117.847992,41.004131 116.154510,40.719341 
	C114.720535,38.274136 113.873444,36.129116 112.987381,33.611359 
	C111.602455,29.835121 110.256485,26.431623 108.910515,23.028126 
	C109.753586,22.766865 110.596657,22.505604 111.744576,22.109797 
z"/>
<path fill="#268EB4" opacity="1.000000" stroke="none" 
	d="
M113.026344,33.984100 
	C113.873444,36.129116 114.720535,38.274136 115.740768,40.725098 
	C116.554955,44.735271 117.323502,48.422955 117.806770,52.147652 
	C118.509598,57.564659 116.650909,58.847492 111.125824,56.517818 
	C112.454933,56.043816 114.001289,55.857914 116.727623,55.530163 
	C115.127411,48.572529 113.548470,41.707352 112.212357,34.427898 
	C112.645569,34.003780 112.835953,33.993938 113.026344,33.984100 
z"/>
<path fill="#268EB4" opacity="1.000000" stroke="none" 
	d="
M109.167183,55.969959 
	C109.208290,55.801289 109.564255,55.641758 110.016098,55.729195 
	C109.901993,55.977146 109.692009,55.978123 109.167183,55.969959 
z"/>
<path fill="#2998C1" opacity="1.000000" stroke="none" 
	d="
M112.987381,33.611359 
	C112.835953,33.993938 112.645569,34.003780 112.169861,34.032097 
	C108.460007,29.084967 105.035461,24.119360 101.306030,18.783428 
	C101.001137,18.413101 101.004227,17.982538 101.004227,17.982540 
	C103.459633,19.538744 105.915047,21.094946 108.640488,22.839638 
	C110.256485,26.431623 111.602455,29.835121 112.987381,33.611359 
z"/>
<path fill="#2B9EC3" opacity="1.000000" stroke="none" 
	d="
M100.733170,17.989002 
	C101.004227,17.982538 101.001137,18.413101 100.999527,18.628265 
	C100.695488,18.743429 100.393051,18.643427 100.006653,18.297226 
	C100.102493,18.032505 100.282303,18.013985 100.733170,17.989002 
z"/>
<path fill="#1478B2" opacity="1.000000" stroke="none" 
	d="
M103.983078,132.612091 
	C103.976891,133.015869 103.499908,133.021683 103.261703,133.024506 
	C99.324173,133.012390 95.624847,132.997467 91.465759,132.977600 
	C91.484703,131.713898 91.963394,130.455139 92.214783,129.097702 
	C91.998474,126.547630 92.067108,124.094788 92.004944,121.645271 
	C91.937241,118.976997 92.760223,117.456886 95.743690,116.864677 
	C103.327232,115.359383 103.987076,115.756760 104.002777,123.580017 
	C104.005768,125.071800 104.004997,126.563591 104.008408,128.516235 
	C104.003654,130.054169 103.996452,131.131256 103.983078,132.612091 
M99.179138,125.893448 
	C99.474258,124.447144 99.769379,123.000839 100.125618,121.254967 
	C97.793350,121.254967 96.103165,121.254967 94.452637,121.254967 
	C93.025124,125.371964 94.712662,126.540329 99.179138,125.893448 
M96.326363,127.650620 
	C96.419968,127.542328 96.513573,127.434036 96.607185,127.325752 
	C96.491188,127.377762 96.375198,127.429779 96.326363,127.650620 
z"/>
<path fill="#0D7BBE" opacity="1.000000" stroke="none" 
	d="
M103.505447,114.493713 
	C103.512268,114.513062 103.498627,114.474358 103.505447,114.493713 
z"/>
<path fill="#000000" opacity="1.000000" stroke="none" 
	d="
M98.746262,125.974327 
	C94.712662,126.540329 93.025124,125.371964 94.452637,121.254967 
	C96.103165,121.254967 97.793350,121.254967 100.125618,121.254967 
	C99.769379,123.000839 99.474258,124.447144 98.746262,125.974327 
z"/>
<path fill="#1981BE" opacity="1.000000" stroke="none" 
	d="
M96.292786,127.566208 
	C96.375198,127.429779 96.491188,127.377762 96.607178,127.325745 
	C96.513573,127.434036 96.419968,127.542328 96.292786,127.566208 
z"/>
</svg>